<svg width="16" height="16" viewBox="0 0 16 16" fill="none" xmlns="http://www.w3.org/2000/svg">
<g clip-path="url(#clip0)">
<path d="M7.99996 0C6.58596 0.00158807 5.23033 0.564001 4.23048 1.56385C3.23063 2.5637 2.66821 3.91933 2.66663 5.33333C2.66663 7.67333 5.99996 13.35 7.43196 15.6827C7.49164 15.7797 7.57518 15.8598 7.67462 15.9153C7.77405 15.9709 7.88606 16 7.99996 16C8.11403 16.0005 8.22631 15.9715 8.32584 15.9158C8.42538 15.8601 8.50879 15.7795 8.56796 15.682C9.99996 13.3507 13.3333 7.676 13.3333 5.33333C13.3317 3.91933 12.7693 2.5637 11.7694 1.56385C10.7696 0.564001 9.41396 0.00158807 7.99996 0V0ZM7.99996 7.66667C7.53847 7.66667 7.08734 7.52982 6.70363 7.27343C6.31991 7.01704 6.02084 6.65262 5.84424 6.22626C5.66764 5.7999 5.62143 5.33075 5.71146 4.87812C5.80149 4.4255 6.02372 4.00974 6.35004 3.68342C6.67637 3.3571 7.09213 3.13487 7.54475 3.04483C7.99737 2.9548 8.46653 3.00101 8.89289 3.17761C9.31925 3.35422 9.68366 3.65329 9.94005 4.037C10.1964 4.42072 10.3333 4.87184 10.3333 5.33333C10.3333 5.95217 10.0875 6.54566 9.64987 6.98325C9.21229 7.42083 8.6188 7.66667 7.99996 7.66667Z" fill="#0F524B"/>
</g>
<defs>
<clipPath id="clip0">
<rect width="16" height="16" fill="white"/>
</clipPath>
</defs>
</svg>
