<svg width="170" height="53" viewBox="0 0 170 53" fill="none" xmlns="http://www.w3.org/2000/svg">
<path d="M54.6637 32.2878L50.1617 33.0487C50.5738 35.7119 52.6663 37.7093 56.883 37.7093C61.163 37.7093 63.5091 35.6485 63.5091 32.7C63.5091 30.2588 61.8922 28.6419 58.8803 27.8493L56.9464 27.342C55.7416 27.0249 55.4246 26.6128 55.4246 26.0738C55.4246 25.2495 56.1221 24.8057 57.0098 24.8057C57.9609 24.8057 58.6584 25.3446 58.7535 26.2323L63.1604 25.2178C62.5897 22.4595 60.1168 20.9377 56.8513 20.9377C52.8565 20.9377 50.6372 23.2204 50.6372 26.1689C50.6372 28.2614 51.7469 30.0051 55.3929 30.988L57.3902 31.5269C58.2462 31.7489 58.595 32.0976 58.595 32.6683C58.595 33.4292 57.9292 33.873 56.8196 33.873C55.5197 33.873 54.6954 33.2707 54.6637 32.2878Z" fill="white"/>
<path d="M83.9726 21.4451L81.3411 30.3539L78.7731 21.4451H73.7638L71.0056 30.132L68.5643 21.4451H63.238L68.5326 37.2972H73.2883L76.2368 28.7053L79.0584 37.2972H83.5921L89.2038 21.4451H83.9726Z" fill="white"/>
<path fill-rule="evenodd" clip-rule="evenodd" d="M103.56 33.5243C103.56 35.268 103.687 36.7898 103.877 37.2971H99.1531C99.0897 37.0435 98.9945 36.5679 98.9311 35.9655C98.1702 36.8849 96.7118 37.7093 94.556 37.7093C91.2904 37.7093 88.8175 35.8387 88.8175 32.4781C88.8175 29.2442 91.0685 27.5322 94.556 27.5322H98.8043V27.0249C98.8043 25.5031 97.6947 24.8374 96.1095 24.8374C94.4926 24.8374 93.4146 25.5031 92.6854 26.8664L89.1663 24.8691C90.7515 21.9206 93.4463 20.9377 96.3948 20.9377C100.041 20.9377 103.56 22.4595 103.56 27.881V33.5243ZM95.9826 34.095C96.807 34.095 98.836 33.9048 98.836 31.0197V30.766H95.7607C94.4291 30.766 93.7951 31.4318 93.7951 32.4147C93.7951 33.4926 94.5243 34.095 95.9826 34.095Z" fill="white"/>
<path fill-rule="evenodd" clip-rule="evenodd" d="M122.206 33.0171C122.206 33.9682 122.333 36.8216 122.523 37.2972H117.641C117.546 36.9801 117.45 36.3778 117.387 35.6803C116.404 36.9484 114.502 37.7093 112.441 37.7093C107.939 37.7093 104.325 35.1413 104.325 29.3711C104.325 24.1717 107.939 20.9378 112.6 20.9378C114.248 20.9378 116.214 21.4451 117.324 22.6499V14.7588H122.206V33.0171ZM109.271 29.3077C109.271 31.8124 111.046 33.2708 113.266 33.2708C115.485 33.2708 117.229 31.8124 117.229 29.3077C117.229 26.8031 115.485 25.3447 113.266 25.3447C111.046 25.3447 109.271 26.8031 109.271 29.3077Z" fill="white"/>
<path fill-rule="evenodd" clip-rule="evenodd" d="M131.446 20.9377C136.265 20.9377 139.404 24.2984 139.404 29.3711V30.988H127.863C128.149 32.8585 129.797 33.556 131.383 33.556C133.063 33.556 134.109 32.8268 134.743 31.6538L138.801 33.239C137.692 36.0289 134.807 37.7093 131.414 37.7093C126.627 37.7093 123.298 34.3803 123.298 29.3394C123.298 24.2984 126.595 20.9377 131.446 20.9377ZM134.426 27.659C134.268 25.7885 133.063 24.9642 131.351 24.9642C129.575 24.9642 128.371 25.8836 127.99 27.659H134.426Z" fill="white"/>
<path d="M144.234 32.2878L139.732 33.0487C140.144 35.7119 142.237 37.7093 146.453 37.7093C150.733 37.7093 153.08 35.6485 153.08 32.7C153.08 30.2588 151.463 28.6419 148.451 27.8493L146.517 27.342C145.312 27.0249 144.995 26.6128 144.995 26.0738C144.995 25.2495 145.693 24.8057 146.58 24.8057C147.532 24.8057 148.229 25.3446 148.324 26.2323L152.731 25.2178C152.16 22.4595 149.687 20.9377 146.422 20.9377C142.427 20.9377 140.208 23.2204 140.208 26.1689C140.208 28.2614 141.317 30.0051 144.963 30.988L146.961 31.5269C147.817 31.7489 148.165 32.0976 148.165 32.6683C148.165 33.4292 147.5 33.873 146.39 33.873C145.09 33.873 144.266 33.2707 144.234 32.2878Z" fill="white"/>
<path d="M163.176 20.9378C161.464 20.9378 159.878 21.5719 158.959 22.5864V14.7588H154.045V37.2972H158.927V28.6102C158.927 25.5983 161.21 25.3764 162.098 25.3764C162.859 25.3764 164.888 25.5983 164.888 28.6736V37.2972H169.77V27.5006C169.77 23.5693 167.646 20.9378 163.176 20.9378Z" fill="white"/>
<path d="M25.5953 27.452C23.0302 25.0204 19.56 23.6287 16.0646 23.6287C16.0477 23.6287 16.031 23.6287 16.0143 23.6287L9.52639 23.679C8.60435 23.6872 7.85834 24.442 7.86671 25.3727C7.8751 26.2951 8.6211 27.0328 9.54318 27.0328C9.55154 27.0328 9.55154 27.0328 9.55993 27.0328L16.0395 26.9825C16.0561 26.9825 16.0646 26.9825 16.0813 26.9825C18.7218 26.9825 21.3453 28.0391 23.2984 29.8922C25.2933 31.7785 26.3914 34.2605 26.4081 36.8682V47.8441C26.4081 48.7665 27.1627 49.5211 28.0846 49.5211C29.0068 49.5211 29.7611 48.7665 29.7611 47.8441V36.86C29.736 33.3132 28.2606 29.9761 25.5953 27.452Z" fill="#CB912C"/>
<path d="M30.5406 23.4271C26.9698 19.8552 22.2256 17.8931 17.1795 17.8931H16.9111C17.0368 17.4741 17.104 17.0379 17.104 16.5853C17.104 14.0361 15.0252 11.9567 12.4769 11.9567H7.12908C6.76027 11.9567 6.41658 11.8142 6.15675 11.5878C6.09807 11.5039 6.03102 11.4201 5.95556 11.3446C5.93881 11.3279 5.91366 11.3027 5.88852 11.2859C5.73762 11.0512 5.64543 10.7745 5.64543 10.4726C5.64543 9.65087 6.30761 8.98847 7.12908 8.98847H12.1752C13.0973 8.98847 13.8516 8.23383 13.8516 7.31151C13.8516 6.38916 13.0973 5.63452 12.1752 5.63452H7.12908C4.46352 5.63452 2.29253 7.8062 2.29253 10.4726C2.29253 11.1099 2.41828 11.7219 2.64458 12.2837L0.490363 14.4469C-0.163454 15.1009 -0.163454 16.166 0.490363 16.8201C0.817271 17.1469 1.24476 17.3148 1.67225 17.3148C2.09973 17.3148 2.52725 17.1469 2.85416 16.8201L4.90779 14.7574C5.57 15.1009 6.33279 15.3024 7.12908 15.3024H12.4769C13.1811 15.3024 13.751 15.8725 13.751 16.5768C13.751 17.2811 13.1811 17.8513 12.4769 17.8513H9.36715C5.24309 17.8513 1.89018 21.2053 1.89018 25.3307C1.89018 29.4558 5.24309 32.8099 9.36715 32.8099H15.3185C17.9841 32.8099 20.1468 34.9732 20.1468 37.6396V44.2048C20.1468 45.1272 20.9012 45.8819 21.823 45.8819C22.7452 45.8819 23.4995 45.1272 23.4995 44.2048V37.6481C23.4995 33.1368 19.8281 29.4643 15.3185 29.4643H9.36715C7.09555 29.4643 5.24309 27.6112 5.24309 25.3389C5.24309 23.2344 6.82732 21.4904 8.8642 21.2387C8.87259 21.2387 8.88098 21.2387 8.88098 21.2387H17.1795C25.7462 21.2387 32.72 28.215 32.72 36.7844V51.0721C32.72 51.9945 33.4746 52.7491 34.3965 52.7491C35.3186 52.7491 36.073 51.9945 36.073 51.0721V36.7844C36.073 31.7366 34.1114 26.9908 30.5406 23.4271Z" fill="#CB912C"/>
<path d="M15.5532 35.2417H11.0184C10.0964 35.2417 9.34198 35.9963 9.34198 36.9187C9.34198 37.8409 10.0964 38.5955 11.0184 38.5955H15.5532C16.4754 38.5955 17.2297 37.8409 17.2297 36.9187C17.2297 35.9963 16.4754 35.2417 15.5532 35.2417Z" fill="#CB912C"/>
<path d="M17.8417 8.343C18.7488 8.343 19.4846 7.60722 19.4846 6.69958C19.4846 5.79194 18.7488 5.05615 17.8417 5.05615C16.9343 5.05615 16.1985 5.79194 16.1985 6.69958C16.1985 7.60722 16.9343 8.343 17.8417 8.343Z" fill="#CB912C"/>
<path d="M14.9077 3.28688C15.8151 3.28688 16.5508 2.55107 16.5508 1.64342C16.5508 0.735783 15.8151 0 14.9077 0C14.0006 0 13.2649 0.735783 13.2649 1.64342C13.2649 2.55107 14.0006 3.28688 14.9077 3.28688Z" fill="#CB912C"/>
<path d="M9.55154 3.27849C10.4568 3.27849 11.1945 2.54063 11.1945 1.63506C11.1945 0.729497 10.4568 0 9.55154 0C8.64624 0 7.90863 0.73786 7.90863 1.64342C7.90863 2.54899 8.64624 3.27849 9.55154 3.27849Z" fill="#CB912C"/>
</svg>
